<?xml version="1.0" encoding="utf-8"?>
<!-- Generator: Adobe Illustrator 16.0.0, SVG Export Plug-In . SVG Version: 6.00 Build 0)  -->
<!DOCTYPE svg PUBLIC "-//W3C//DTD SVG 1.1//EN" "http://www.w3.org/Graphics/SVG/1.1/DTD/svg11.dtd">
<svg version="1.1" xmlns="http://www.w3.org/2000/svg" xmlns:xlink="http://www.w3.org/1999/xlink" x="0px" y="0px"
	 width="1196.2px" height="500.6px" viewBox="0 0 1196.2 500.6" enable-background="new 0 0 1196.2 500.6" xml:space="preserve">
<g id="mountains" display="none">
</g>
<g id="car" display="none">
</g>
<g id="Layer_5">
	<g>
		<path fill="#4C4535" d="M68.2,428.3c35.6-15.3,78-27.8,129.4-38.2c94.8-19.1,207-27.9,315.6-36.4c102.4-8,208.3-16.3,298-33.3
			c96.7-18.2,164.2-44.7,206.1-80.9L853.2,0L651.3,220.8L550.4,73.6L382.6,257.1l-75.9-110.6L32.2,446.1
			C43.3,439.8,55.3,433.9,68.2,428.3z"/>
		<path fill="#FEAA00" d="M1031.6,260.4c-23.6,19.9-53.1,36.5-90.2,50.7c-35,13.5-76.1,24.6-125.5,33.9
			c-91.1,17.2-197.6,25.5-300.7,33.6c-107.8,8.5-219.3,17.3-312.6,36.1C106.7,434,40.3,461.6,0,500.6h160.1h235.5h154.1H843h353.2
			L1031.6,260.4z"/>
	</g>
</g>
</svg>
