<?xml version="1.0" encoding="utf-8"?>
<!-- Generator: Adobe Illustrator 16.0.0, SVG Export Plug-In . SVG Version: 6.00 Build 0)  -->
<!DOCTYPE svg PUBLIC "-//W3C//DTD SVG 1.1//EN" "http://www.w3.org/Graphics/SVG/1.1/DTD/svg11.dtd">
<svg version="1.1" xmlns="http://www.w3.org/2000/svg" xmlns:xlink="http://www.w3.org/1999/xlink" x="0px" y="0px"
	 width="1196.2px" height="500.6px" viewBox="0 0 1196.2 500.6" enable-background="new 0 0 1196.2 500.6" xml:space="preserve">
<g id="mountains" display="none">
</g>
<g id="car" display="none">
</g>
<g id="Layer_5">
	<g>
		<path fill="#FFFFFF" d="M68.2,428.5c35.6-15.3,78-27.8,129.4-38.2c94.8-19.1,207-27.9,315.6-36.4c102.4-8,208.3-16.3,298-33.3
			c96.7-18.2,164.2-44.7,206.1-80.9L853.2,0.3L651.3,221L550.4,73.8L382.6,257.4l-75.9-110.6L32.2,446.3
			C43.3,440,55.3,434.1,68.2,428.5z"/>
		<path fill="#FEAA00" d="M1031.6,260.5c-23.6,19.9-53.1,36.5-90.2,50.8c-35,13.5-76.1,24.6-125.5,33.9
			c-91.1,17.2-197.6,25.5-300.7,33.6c-107.8,8.5-219.3,17.2-312.6,36C106.7,434.2,40.3,462.3,0,500.6h160.1h235.5h154.1H843h353.2
			L1031.6,260.5z"/>
	</g>
</g>
</svg>
