<?xml version="1.0" encoding="utf-8"?>
<!-- Generator: Adobe Illustrator 16.0.0, SVG Export Plug-In . SVG Version: 6.00 Build 0)  -->
<!DOCTYPE svg PUBLIC "-//W3C//DTD SVG 1.1//EN" "http://www.w3.org/Graphics/SVG/1.1/DTD/svg11.dtd">
<svg version="1.1" id="Layer_1" xmlns="http://www.w3.org/2000/svg" xmlns:xlink="http://www.w3.org/1999/xlink" x="0px" y="0px"
	 width="1196.2px" height="500.6px" viewBox="0 0 1196.2 500.6" enable-background="new 0 0 1196.2 500.6" xml:space="preserve">
<g id="mountains" display="none">
</g>
<g id="car" display="none">
</g>
<g id="Layer_5">
	<g>
		<path fill="#FFFFFF" d="M68.2,428.3c35.6-15.3,78-27.8,129.4-38.2c94.8-19.1,207-27.899,315.6-36.399c102.4-8,208.3-16.3,298-33.3
			c96.701-18.2,164.201-44.7,206.1-80.9L853.2,0l-201.9,220.8L550.4,73.6l-167.8,183.5L306.7,146.5L32.2,446.1
			C43.3,439.8,55.3,433.9,68.2,428.3z"/>
		<path fill="#FFFFFF" d="M1031.6,260.399c-23.6,19.9-53.1,36.5-90.199,50.7c-35,13.5-76.102,24.601-125.5,33.9
			c-91.102,17.2-197.602,25.5-300.701,33.6C407.4,387.1,295.9,395.9,202.6,414.7C106.7,434,40.3,461.6,0,500.6h160.1h235.5h154.1
			H843H1196.2L1031.6,260.399z"/>
	</g>
</g>
</svg>
