<?xml version="1.0" encoding="utf-8"?>
<!-- Generator: Adobe Illustrator 16.0.0, SVG Export Plug-In . SVG Version: 6.00 Build 0)  -->
<!DOCTYPE svg PUBLIC "-//W3C//DTD SVG 1.1//EN" "http://www.w3.org/Graphics/SVG/1.1/DTD/svg11.dtd">
<svg version="1.1" id="Layer_1" xmlns="http://www.w3.org/2000/svg" xmlns:xlink="http://www.w3.org/1999/xlink" x="0px" y="0px"
	 width="1236.2px" height="1153.6px" viewBox="0 0 1236.2 1153.6" enable-background="new 0 0 1236.2 1153.6" xml:space="preserve">
<g id="mountains" display="none">
	<g display="inline">
		<path fill="none" stroke="#8B826A" stroke-width="10" stroke-miterlimit="10" d="M14874.8,8549.4c-12-31-24.4-61.8-37.1-92.5"/>
		<path fill="none" stroke="#8B826A" stroke-width="10" stroke-miterlimit="10" d="M12265.6,6073.8
			c1128.8,369.7,2046.8,1204.9,2527,2278.7"/>
		<path fill="none" stroke="#8B826A" stroke-width="10" stroke-miterlimit="10" d="M14837.7,8457c-14.5-35.1-29.6-69.9-45-104.4"/>
		<path fill="none" stroke="#8B826A" stroke-width="10" stroke-miterlimit="10" d="M12265.6,6073.8c-16.5-5.4-33.1-10.7-49.7-15.9"
			/>
		<path fill="none" stroke="#8B826A" stroke-width="10" stroke-miterlimit="10" d="M9799.1,14102.5c16.7,4.8,33.5,9.5,50.3,14.1"/>
		<path fill="none" stroke="#8B826A" stroke-width="10" stroke-miterlimit="10" d="M6758.4,10065.2
			c0,1917.3,1285,3534.5,3040.8,4037.3"/>
		<path fill="none" stroke="#8B826A" stroke-width="10" stroke-miterlimit="10" d="M14874.8,8549.4
			c182.1,470.2,281.9,981.3,281.9,1515.8c0,2319.1-1880,4199.2-4199.2,4199.2c-383.6,0-755.1-51.4-1108.1-147.8"/>
		<path fill="none" stroke="#8B826A" stroke-width="10" stroke-miterlimit="10" d="M14857.6,8306.3c-21.5,15.6-43.2,31-65,46.3"/>
		<path fill="none" stroke="#8B826A" stroke-width="10" stroke-miterlimit="10" d="M14857.6,8306.3c21.1-15.4,42.1-30.9,62.9-46.6"
			/>
		<path fill="none" stroke="#8B826A" stroke-width="10" stroke-miterlimit="10" d="M13145.9,9038.8c-41.2,7.5-82.6,14.4-124.3,20.6"
			/>
		<path fill="none" stroke="#8B826A" stroke-width="10" stroke-miterlimit="10" d="M8556.4,6619.9c-233.9-523-364-1102.7-364-1712.7
			c0-2191,1678-3990.1,3819-4182.2"/>
		<path fill="none" stroke="#8B826A" stroke-width="10" stroke-miterlimit="10" d="M13145.9,9038.8
			c603.8-109.5,1162.5-348.1,1646.7-686.2"/>
		<path fill="none" stroke="#8B826A" stroke-width="10" stroke-miterlimit="10" d="M12137.1,715.7c84.2-5,169-7.6,254.4-7.6
			c2319.1,0,4199.2,1880,4199.2,4199.2c0,1369.5-655.6,2585.9-1670.1,3352.4"/>
		<path fill="none" stroke="#8B826A" stroke-width="10" stroke-miterlimit="10" d="M12137.1,715.7c-42.1,2.5-84,5.6-125.7,9.4"/>
		<path fill="none" stroke="#8B826A" stroke-width="10" stroke-miterlimit="10" d="M12391.5,9106.4c214.2,0,424.6-16.1,630.1-47"/>
		<path fill="none" stroke="#8B826A" stroke-width="10" stroke-miterlimit="10" d="M12011.4,725.1c82.6-12.4,165.9-22.5,250-30"/>
		<path fill="none" stroke="#8B826A" stroke-width="10" stroke-miterlimit="10" d="M14906.5,8413.8c22.4-14.4,44.7-29,66.8-43.8"/>
		<path fill="none" stroke="#8B826A" stroke-width="10" stroke-miterlimit="10" d="M14906.5,8413.8c-22.8,14.6-45.7,29-68.8,43.2"/>
		<path fill="none" stroke="#8B826A" stroke-width="10" stroke-miterlimit="10" d="M13021.6,9059.4c84.1-7.5,167.4-17.6,250-30"/>
		<path fill="none" stroke="#8B826A" stroke-width="10" stroke-miterlimit="10" d="M13021.6,9059.4c-125.2,11.2-252,17-380.1,17"/>
		<path fill="none" stroke="#8B826A" stroke-width="10" stroke-miterlimit="10" d="M12261.4,695.1c125.2-11.2,252-17,380.1-17
			c2319.1,0,4199.2,1880,4199.2,4199.2c0,1456.4-741.4,2739.5-1867.3,3492.7"/>
		<path fill="none" stroke="#8B826A" stroke-width="10" stroke-miterlimit="10" d="M14837.7,8457c-469,288.3-998.9,487.1-1566,572.4
			"/>
		<path fill="none" stroke="#8B826A" stroke-width="10" stroke-miterlimit="10" d="M13145.9,9038.8c42.1-2.5,84-5.6,125.7-9.4"/>
		<path fill="none" stroke="#8B826A" stroke-width="10" stroke-miterlimit="10" d="M14947,8509.7c-23.9,13.5-48,26.7-72.3,39.7"/>
		<path fill="none" stroke="#8B826A" stroke-width="10" stroke-miterlimit="10" d="M14874.8,8549.4
			c-485.1,260.4-1027.4,428.3-1603.1,479.9"/>
		<path fill="none" stroke="#8B826A" stroke-width="10" stroke-miterlimit="10" d="M12261.4,695.1c205.5-30.9,416-47,630.1-47
			c2319.1,0,4199.2,1880,4199.2,4199.2c0,1543.4-832.6,2892.2-2073.2,3622"/>
		<path fill="none" stroke="#8B826A" stroke-width="10" stroke-miterlimit="10" d="M14947,8509.7c23.6-13.3,47.1-26.8,70.5-40.5"/>
		<path fill="none" stroke="#8B826A" stroke-width="10" stroke-miterlimit="10" d="M12137.1,715.7c41.2-7.5,82.6-14.4,124.3-20.6"/>
		<path fill="none" stroke="#8B826A" stroke-width="10" stroke-miterlimit="10" d="M14906.5,8413.8c-15.8-36.1-32.1-71.9-48.9-107.5
			"/>
		<path fill="none" stroke="#8B826A" stroke-width="10" stroke-miterlimit="10" d="M14947,8509.7
			c199.6,489.2,309.6,1024.5,309.6,1585.5c0,2319.1-1880,4199.2-4199.2,4199.2c-401.8,0-790.4-56.5-1158.4-161.8"/>
		<path fill="none" stroke="#8B826A" stroke-width="10" stroke-miterlimit="10" d="M6858.4,10095.2
			c0,1880.7,1236.4,3472.7,2940.8,4007.3"/>
		<path fill="none" stroke="#8B826A" stroke-width="10" stroke-miterlimit="10" d="M14947,8509.7c-13.1-32.2-26.7-64.2-40.6-96"/>
		<path fill="none" stroke="#8B826A" stroke-width="10" stroke-miterlimit="10" d="M12315.9,6087.9
			c1124.5,352.8,2045.3,1165.8,2541.7,2218.4"/>
		<path fill="none" stroke="#8B826A" stroke-width="10" stroke-miterlimit="10" d="M9799.1,14102.5c33.2,10.4,66.5,20.4,100,30"/>
		<path fill="none" stroke="#8B826A" stroke-width="10" stroke-miterlimit="10" d="M12315.9,6087.9c-33.2-10.4-66.5-20.4-100-30"/>
		<path fill="none" stroke="#8B826A" stroke-width="10" stroke-miterlimit="10" d="M15017.5,8469.2c-14.3-33.3-29-66.4-44.2-99.2"/>
		<path fill="none" stroke="#8B826A" stroke-width="10" stroke-miterlimit="10" d="M9849.4,14116.6c16.5,5.4,33.1,10.7,49.7,15.9"/>
		<path fill="none" stroke="#8B826A" stroke-width="10" stroke-miterlimit="10" d="M15017.5,8469.2
			c218.3,508.1,339.2,1068,339.2,1656c0,2319.1-1880,4199.2-4199.2,4199.2c-438.4,0-861.1-67.2-1258.4-191.8"/>
		<path fill="none" stroke="#8B826A" stroke-width="10" stroke-miterlimit="10" d="M6958.4,10125.2
			c0,1862.4,1212.4,3441.6,2891.1,3991.4"/>
		<path fill="none" stroke="#8B826A" stroke-width="10" stroke-miterlimit="10" d="M9680.9,7553.8
			c770.3,912.8,1922.7,1492.6,3210.6,1492.6c85.4,0,170.2-2.6,254.4-7.6"/>
		<path fill="none" stroke="#8B826A" stroke-width="10" stroke-miterlimit="10" d="M14973.3,8370c-17.1-37.1-34.7-73.8-52.8-110.3"
			/>
		<path fill="none" stroke="#8B826A" stroke-width="10" stroke-miterlimit="10" d="M12315.9,6087.9
			C13458,6415,14401,7213.6,14920.6,8259.7"/>
		<path fill="none" stroke="#8B826A" stroke-width="10" stroke-miterlimit="10" d="M12265.6,6073.8c16.8,4.6,33.6,9.3,50.3,14.1"/>
		<path fill="none" stroke="#8B826A" stroke-width="10" stroke-miterlimit="10" d="M8556.4,6619.9c11.4,25.6,23.1,51,35,76.3
			c65.6-47.7,132.7-93.6,201.1-137.5c10.8,24.7,21.9,49.3,33.2,73.8c34.8-23.3,69.9-46,105.4-68.3c33.2-20.8,66.6-41.1,100.4-61
			c48.4,112.8,101.8,223.5,159.6,330.9l0.1,0.5h-915.1c90.3-76,183.8-146.9,280.3-214.3"/>
	</g>
</g>
<g id="car" display="none">
	<polygon display="inline" fill="#4C4535" points="8269.5,6833.6 8557.5,6619 8593,6700.4 8773.5,6549.9 8821,6641.3 8989.5,6486.5 
		9197.9,6833.6 	"/>
	<g display="inline">
		<path fill="#4C4535" stroke="#8B826A" stroke-width="15" stroke-miterlimit="10" d="M9191.2,6835.1L9191.2,6835.1
			c-57.8-107.4-111.2-219.1-159.6-331.9c-33.8,19.9-67.2,40.2-100.4,61c-35.5,22.2-70.7,45-105.4,68.3c-11.3-24.5-22.3-49-33.2-73.7
			c-68.4,43.9-135.5,89.9-201.1,137.6c-11.9-25.3-23.6-50.5-35-76c-59,41.2-116.9,84.2-173.6,128.5c-36,28.1-71.6,56.8-106.7,86.8
			L9191.2,6835.1z"/>
	</g>
	<path display="inline" fill="none" stroke="#8B826A" stroke-width="20" stroke-linecap="round" stroke-miterlimit="10" d="
		M7977,6782.3c-30-135,19.5-267,189-267c141,0,127.5,129,262.5,90"/>
	<path display="inline" fill="none" stroke="#8B826A" stroke-width="20" stroke-linecap="round" stroke-miterlimit="10" d="
		M8535,6581.3c-19.5-33-34.5-130.5-36-166.5"/>
	<g display="inline">
		<path fill="none" stroke="#8B826A" stroke-width="10" stroke-linecap="round" stroke-miterlimit="10" d="M8306.6,6576.5
			c-42.4-38.9-99-62.7-161.1-62.7c-131.7,0-238.5,106.8-238.5,238.5"/>
		<path fill="none" stroke="#8B826A" stroke-width="10" stroke-linecap="round" stroke-miterlimit="10" d="M8306.6,6576.5
			c0.8,0.8,1.7,1.6,2.5,2.3"/>
		<path fill="none" stroke="#8B826A" stroke-width="10" stroke-linecap="round" stroke-miterlimit="10" d="M8306.6,6576.5
			c0.8,0.8,1.7,1.6,2.5,2.3"/>
		<path fill="none" stroke="#8B826A" stroke-width="10" stroke-linecap="round" stroke-miterlimit="10" d="M8309.1,6578.8
			c19.9,18,46.4,29,75.4,29c62.1,0,112.5-50.4,112.5-112.5"/>
	</g>
	
		<circle display="inline" fill="#FFFFFF" stroke="#8B826A" stroke-width="30" stroke-miterlimit="10" cx="8932.5" cy="6752.3" r="112.5"/>
	
		<circle display="inline" fill="#FFFFFF" stroke="#8B826A" stroke-width="30" stroke-miterlimit="10" cx="8145.5" cy="6752.3" r="112.5"/>
	<path display="inline" fill="none" stroke="#8B826A" stroke-width="15" stroke-linecap="round" stroke-linejoin="round" d="
		M8542.5,6588.4c-19.1-43.7-37.5-87.8-55.1-132.2c4.3,11.9,6.6,24.7,6.6,38.1c0,62.1-50.4,112.5-112.5,112.5
		c-27.3,0-56.3-13.4-75.8-29.6c-41.7-36.5-100.4-62.3-160.2-62.3c-131.1,0-237.4,106.3-237.4,237.4"/>
</g>
<path fill="#4C4535" d="M7049.5,10173.6c-74.4-141-144.3-287.6-207.5-434.7c-44.1,25.9-87.5,52.3-130.8,79.4
	c-46.3,29-92.1,58.7-137.5,89.1c-14.7-31.9-29.1-64-43.2-96.3c-89.3,57.3-176.8,117.3-262.4,179.6c-15.6-33-30.8-65.9-45.7-99.2
	c-77,53.8-152.5,110.6-226.6,168.3c-47,36.6-93.4,74.9-139.2,113.9L7049.5,10173.6L7049.5,10173.6z"/>
<path display="none" fill="#4C4535" stroke="#FFFFFF" stroke-width="15" stroke-miterlimit="10" d="M5856.6,10173.6
	c172.6-139.8,858.1-64.7,1088.8-219.4"/>
<g enable-background="new    ">
	<path fill="#8B826A" d="M66.4,1082.9c-4.2-4.8-9.3-7.3-15.6-7.3c-10.3,0-18.2,9.1-18.2,19.1c0,11.2,7.8,19.3,18.9,19.3
		c6.1,0,10.9-2.8,14.9-7.2v13.4c-4.8,2.6-9.6,3.6-15,3.6c-16.1,0-29.2-12.3-29.2-28.7c0-16.9,13-29.4,29.8-29.4
		c4.9,0,10.3,1.2,14.4,3.6V1082.9z"/>
</g>
<g enable-background="new    ">
	<path fill="#8B826A" d="M87.3,1121.9H76.8v-101.1h10.5V1121.9z"/>
	<path fill="#8B826A" d="M153.4,1121.9h-10.5v-8.5h-0.2c-4.2,6.2-10.7,10.4-18.5,10.4c-16.7,0-26.1-13.9-26.1-29.5
		c0-14.9,9.9-28.5,25.7-28.5c8,0,14.6,4.2,18.9,10.7h0.2v-9.1h10.5V1121.9z M143.5,1094.7c0-10.6-6.4-19.6-17.7-19.6
		c-10.8,0-17.2,9.4-17.2,19.6c0,10.3,6.2,19.8,17.2,19.8C137.2,1114.5,143.5,1105.4,143.5,1094.7z"/>
	<path fill="#8B826A" d="M188.9,1079.9c-1.3-2.7-4-4.8-7-4.8c-2.9,0-5.7,2.3-5.7,5.4c0,4.8,6.3,6.9,12.7,9.8
		c6.4,2.9,12.6,6.9,12.6,15.5c0,10.4-8.6,18.1-18.8,18.1c-7.9,0-16-4.5-18.9-12.2l9-4.1c2.2,4.1,4.9,7,9.9,7c4.4,0,8.3-3,8.3-7.7
		c0-2.9-1.4-4.3-3.8-5.9l-10.3-5.5c-6.1-3.3-10.5-6.3-10.5-13.7c0-8.9,7.2-15.8,16.1-15.8c6.6,0,12,3.6,14.9,9.6L188.9,1079.9z"/>
	<path fill="#8B826A" d="M233.6,1079.9c-1.3-2.7-4-4.8-7-4.8c-2.9,0-5.7,2.3-5.7,5.4c0,4.8,6.3,6.9,12.7,9.8
		c6.4,2.9,12.6,6.9,12.6,15.5c0,10.4-8.6,18.1-18.8,18.1c-7.9,0-16-4.5-18.9-12.2l9-4.1c2.2,4.1,4.9,7,9.9,7c4.4,0,8.3-3,8.3-7.7
		c0-2.9-1.4-4.3-3.8-5.9l-10.3-5.5c-6.1-3.3-10.5-6.3-10.5-13.7c0-8.9,7.2-15.8,16.1-15.8c6.6,0,12,3.6,14.9,9.6L233.6,1079.9z"/>
	<path fill="#8B826A" d="M271.3,1042.5c0,4-3.3,7.1-7.2,7.1c-4,0-7.2-3.1-7.2-7.1c0-4.1,3.3-7.3,7.2-7.3
		C268,1035.2,271.3,1038.4,271.3,1042.5z M269.3,1121.9h-10.5v-54.5h10.5V1121.9z"/>
	<path fill="#8B826A" d="M326.1,1082.9c-4.2-4.8-9.3-7.3-15.6-7.3c-10.3,0-18.2,9.1-18.2,19.1c0,11.2,7.8,19.3,18.9,19.3
		c6.1,0,10.9-2.8,14.9-7.2v13.4c-4.8,2.6-9.6,3.6-15,3.6c-16.1,0-29.2-12.3-29.2-28.7c0-16.9,13-29.4,29.8-29.4
		c4.9,0,10.3,1.2,14.4,3.6V1082.9z"/>
	<path fill="#8B826A" d="M411.2,1082.9c-4.2-4.8-9.3-7.3-15.6-7.3c-10.3,0-18.2,9.1-18.2,19.1c0,11.2,7.8,19.3,18.9,19.3
		c6.1,0,11-2.8,14.9-7.2v13.4c-4.8,2.6-9.6,3.6-15,3.6c-16.1,0-29.2-12.3-29.2-28.7c0-16.9,13-29.4,29.8-29.4
		c4.9,0,10.3,1.2,14.4,3.6V1082.9z"/>
	<path fill="#8B826A" d="M473.6,1121.9h-10.5v-8.5h-0.2c-4.2,6.2-10.7,10.4-18.5,10.4c-16.7,0-26.1-13.9-26.1-29.5
		c0-14.9,9.9-28.5,25.7-28.5c8,0,14.6,4.2,18.9,10.7h0.2v-9.1h10.5V1121.9z M463.7,1094.7c0-10.6-6.4-19.6-17.7-19.6
		c-10.8,0-17.2,9.4-17.2,19.6c0,10.3,6.2,19.8,17.2,19.8C457.4,1114.5,463.7,1105.4,463.7,1094.7z"/>
	<path fill="#8B826A" d="M498.4,1076.3h0.3c2.6-6.4,7.9-10.5,14.9-10.5c3,0,6.1,1,8.6,2.7l-4.8,9.6c-1.9-1.6-4-2.2-6.4-2.2
		c-11.3,0-12.7,10.5-12.7,19.3v26.8h-10.5v-54.5h10.5V1076.3z"/>
	<path fill="#8B826A" d="M550,1079.9c-1.3-2.7-4-4.8-7-4.8c-2.9,0-5.7,2.3-5.7,5.4c0,4.8,6.3,6.9,12.7,9.8
		c6.4,2.9,12.6,6.9,12.6,15.5c0,10.4-8.6,18.1-18.8,18.1c-7.9,0-16-4.5-18.9-12.2l9-4.1c2.2,4.1,4.9,7,9.9,7c4.4,0,8.3-3,8.3-7.7
		c0-2.9-1.4-4.3-3.8-5.9l-10.3-5.5c-6.1-3.3-10.5-6.3-10.5-13.7c0-8.9,7.2-15.8,16.1-15.8c6.6,0,12,3.6,14.9,9.6L550,1079.9z"/>
	<path fill="#8B826A" d="M658.7,1110.1c-6.6,7.8-16,13.7-26.3,13.7c-14.7,0-26.9-10.7-26.9-25.9c0-11.2,7-17.2,15.4-23.3l5.5-4
		c-5-5.2-9.7-11.8-9.7-19.2c0-12.1,8.7-19.2,20.3-19.2c10.7,0,20.3,6.8,20.3,18.3c0,9.9-8.6,16.5-16,21.9l18.3,22.1l10.3-11.9l7,7.2
		l-10.7,12.6l15.7,19.5h-13.5L658.7,1110.1z M631.7,1079.3c-6.1,4.2-16,10.1-16,18.5s7.9,16.2,16.3,16.2c8.2,0,14.7-6.2,20.2-11.6
		l-19.5-23.8L631.7,1079.3z M636.4,1063.9c4.4-3.5,10.5-7.1,10.5-13.5c0-6.2-4.4-9.6-10.3-9.6c-5.2,0-9.8,3.7-9.8,9.3
		c0,4.4,2.7,7.7,5.2,10.9l2.9,3.7L636.4,1063.9z"/>
	<path fill="#8B826A" d="M747.8,1031.4c-2.1-0.9-4.8-2.2-7-2.2c-7.5,0-7.5,9.4-7.5,14.8v23.4h14.4v9.8h-14.4v44.7h-10.5v-44.7h-4.8
		v-9.8h4.8v-26.6c0-11.9,4.1-21.4,17.6-21.4c2.6,0,5,0.5,7.3,1.4V1031.4z"/>
	<path fill="#8B826A" d="M767.6,1042.5c0,4-3.3,7.1-7.2,7.1c-4,0-7.2-3.1-7.2-7.1c0-4.1,3.3-7.3,7.2-7.3
		C764.4,1035.2,767.6,1038.4,767.6,1042.5z M765.6,1121.9h-10.5v-54.5h10.5V1121.9z"/>
	<path fill="#8B826A" d="M792.9,1074.8h0.2c3.3-5.8,9.8-9,16.4-9c15.4,0,19.3,10.4,19.3,23.6v32.5h-10.5v-31.2
		c0-9.3-1.3-15.6-12-15.6c-13.5,0-13.5,11.9-13.5,21.8v25h-10.5v-54.5h10.5V1074.8z"/>
	<path fill="#8B826A" d="M849.6,1096.4c0.1,9.3,6.4,18.1,16.4,18.1c8,0,12.3-4.1,16.3-10.6l8.9,5c-5.1,9.4-14.7,14.9-25.3,14.9
		c-16.7,0-26.8-12.6-26.8-28.7c0-16.8,9-29.4,26.6-29.4c17.4,0,25.5,12.8,25.5,29v1.6H849.6z M880.7,1088.5
		c-1.3-8.2-6.6-13.6-15-13.6c-8.2,0-14.2,5.8-15.5,13.6H880.7z"/>
	<path fill="#8B826A" d="M974.5,1113.4h-0.2c-4.2,6.2-10.8,10.4-18.5,10.4c-16.8,0-26.1-13.9-26.1-29.5c0-14.9,9.9-28.5,25.6-28.5
		c8.2,0,14.7,4.2,19,10.7h0.2v-55.7H985v101.1h-10.5V1113.4z M975.1,1094.7c0-10.6-6.4-19.6-17.7-19.6c-10.8,0-17.2,9.4-17.2,19.6
		c0,10.3,6.2,19.8,17.2,19.8C968.8,1114.5,975.1,1105.4,975.1,1094.7z"/>
	<path fill="#8B826A" d="M1013.4,1042.5c0,4-3.3,7.1-7.2,7.1c-4,0-7.2-3.1-7.2-7.1c0-4.1,3.3-7.3,7.2-7.3
		C1010.1,1035.2,1013.4,1038.4,1013.4,1042.5z M1011.4,1121.9h-10.5v-54.5h10.5V1121.9z"/>
	<path fill="#8B826A" d="M1038.7,1074.8h0.2c3.3-5.8,9.8-9,16.4-9c15.4,0,19.3,10.4,19.3,23.6v32.5h-10.5v-31.2
		c0-9.3-1.3-15.6-12-15.6c-13.5,0-13.5,11.9-13.5,21.8v25h-10.5v-54.5h10.5V1074.8z"/>
	<path fill="#8B826A" d="M1103.9,1042.5c0,4-3.3,7.1-7.2,7.1c-4,0-7.2-3.1-7.2-7.1c0-4.1,3.3-7.3,7.2-7.3
		C1100.7,1035.2,1103.9,1038.4,1103.9,1042.5z M1101.9,1121.9h-10.5v-54.5h10.5V1121.9z"/>
	<path fill="#8B826A" d="M1129.2,1074.8h0.2c3.3-5.8,9.8-9,16.4-9c15.4,0,19.3,10.4,19.3,23.6v32.5h-10.5v-31.2
		c0-9.3-1.3-15.6-12-15.6c-13.5,0-13.5,11.9-13.5,21.8v25h-10.5v-54.5h10.5V1074.8z"/>
	<path fill="#8B826A" d="M1230.7,1120.9c0,18.8-5.4,32.3-26.6,32.3c-15.1,0-26.1-9.3-26.3-24.7h10.5c0,9.8,6.8,15.4,16.3,15.4
		c12.9,0,15.6-8.9,15.6-20v-10.4h-0.2c-4.2,6.2-10.8,10.4-18.5,10.4c-16.8,0-26.1-13.9-26.1-29.5c0-14.9,9.9-28.5,25.6-28.5
		c8.2,0,14.7,4.2,19,11h0.2v-9.3h10.5V1120.9z M1220.8,1094.7c0-10.6-6.4-19.6-17.7-19.6c-10.8,0-17.2,9.4-17.2,19.6
		c0,10.3,6.2,19.8,17.2,19.8C1214.5,1114.5,1220.8,1105.4,1220.8,1094.7z"/>
</g>
<g enable-background="new    ">
	<path fill="#4C4535" d="M24.3,749.4h40.9c33,0,59.2,5.4,84.1,28.5c23.7,22.2,36,52.6,36,85c0,31.2-12,61-34.8,82.9
		c-24.9,24-51.7,30-85.3,30H24.3V749.4z M64.9,962.3c29.7,0,54.4-6,76-27.3c19.2-19.2,30-45.1,30-72.1c0-28.8-11.4-55.9-32.7-75.4
		c-21.6-19.5-45.1-24.6-73.3-24.6H38.7v199.5H64.9z"/>
</g>
<g enable-background="new    ">
	<path fill="#4C4535" d="M434,862.6c0,63.7-53.8,116.2-117.5,116.2s-117.5-52.6-117.5-116.2s53.5-116.2,117.5-116.2
		C380.2,746.3,434,798.9,434,862.6z M213.5,862.6c0,55.9,46.6,102.7,103,102.7c56.2,0,103-47.2,103-102.7
		c0-55.9-46.9-102.7-103-102.7C260.1,759.9,213.5,806.7,213.5,862.6z"/>
	<path fill="#4C4535" d="M464.6,962.3h57.7v13.5h-72.1V749.4h14.4V962.3z"/>
</g>
<g enable-background="new    ">
	<path fill="#4C4535" d="M749.7,862.6c0,63.7-53.8,116.2-117.5,116.2s-117.5-52.6-117.5-116.2s53.5-116.2,117.5-116.2
		C695.9,746.3,749.7,798.9,749.7,862.6z M529.2,862.6c0,55.9,46.6,102.7,103,102.7c56.2,0,103-47.2,103-102.7
		c0-55.9-46.9-102.7-103-102.7C575.8,759.9,529.2,806.7,529.2,862.6z"/>
</g>
<g enable-background="new    ">
	<path fill="#4C4535" d="M961.2,788.4h-0.6l-79,194.9l-78.7-194.9h-0.6l-38.7,187.4h-13.8l48.7-234l83.2,206.1l83.5-206.1l48.7,234
		h-13.8L961.2,788.4z"/>
	<path fill="#4C4535" d="M1048.3,975.8h-14.4V749.4h14.4V975.8z"/>
	<path fill="#4C4535" d="M1140.5,975.8h-14.4v-213h-58.6v-13.5h131.6v13.5h-58.6V975.8z"/>
	<path fill="#4C4535" d="M1232.7,975.8h-14.4V749.4h14.4V975.8z"/>
</g>
<g enable-background="new    ">
	<path fill="#8B826A" d="M107.1,642.5v3.4c0,23.7-16.7,42-40.9,42c-24.2,0-43.7-20.9-43.7-44.8c0-24.9,19.9-45.3,44.8-45.3
		c13.4,0,26.7,6.1,35.2,16.7l-7.6,7.2c-6.2-8.5-16.6-14.1-27.2-14.1c-19.4,0-34.5,15.7-34.5,35.1c0,18.1,14.9,35.3,33.6,35.3
		c13.4,0,27.9-11.6,28.3-25.7H72.8v-9.9H107.1z"/>
	<path fill="#8B826A" d="M216.5,686.1h-13.1l-25.5-36.6h-4.5v36.6h-10.8v-86.4h13.1c7.7,0,15.9,0.1,22.8,4
		c7.2,4.2,11.4,12.4,11.4,20.6c0,12.4-8.3,22.7-20.8,24.2L216.5,686.1z M173.5,640.6h3.4c11,0,22.9-2.1,22.9-15.8
		c0-13.5-12.8-15.5-23.5-15.5h-2.9V640.6z"/>
	<path fill="#8B826A" d="M282.2,664.4l-9.9,21.7h-11.6L302,596l41.3,90.1h-11.6l-9.9-21.7H282.2z M302,619.6l-15.4,35h30.7
		L302,619.6z"/>
	<path fill="#8B826A" d="M394.4,595.5l64.9,68v-63.9h10.8v90l-64.9-68v64.4h-10.8V595.5z"/>
	<path fill="#8B826A" d="M619.2,686.1h-10.8v-86.4h12.4c26.6,0,34.9,9.2,34.9,25c0,18.2-13.9,25.2-30.3,25.2h-6.2V686.1z
		 M619.2,640.2h3.4c11,0,22.9-2.1,22.9-15.8c0-13.5-12.8-15.1-23.5-15.1h-2.9V640.2z"/>
	<path fill="#8B826A" d="M763.9,686.1h-13.1l-25.5-36.6h-4.5v36.6h-10.8v-86.4h13.1c7.7,0,15.9,0.1,22.8,4
		c7.2,4.2,11.4,12.4,11.4,20.6c0,12.4-8.3,22.7-20.8,24.2L763.9,686.1z M720.9,640.6h3.4c11,0,22.9-2.1,22.9-15.8
		c0-13.5-12.8-15.5-23.5-15.5h-2.9V640.6z"/>
</g>
<g enable-background="new    ">
	<path fill="#8B826A" d="M823.8,599.6h46.4v9.9h-35.7v24.2h34.6v9.9h-34.6v32.7h35.7v9.9h-46.4V599.6z"/>
</g>
<g enable-background="new    ">
	<path fill="#8B826A" d="M948.6,629h-0.2l-10.1,57.1h-11.1l17.7-90.1l29.7,68.1l29.7-68.1l17.7,90.1h-11.1l-10.1-57.1h-0.2
		l-25.9,58.9L948.6,629z"/>
	<path fill="#8B826A" d="M1086.9,686.1h-10.8v-86.4h10.8V686.1z"/>
</g>
<g enable-background="new    ">
	<path fill="#8B826A" d="M1234.3,642.9c0,25.7-20.3,45.1-45.3,45.1c-25,0-45.3-19.4-45.3-45.1c0-24.8,20.5-45.1,45.3-45.1
		S1234.3,618.1,1234.3,642.9z M1223.5,642.9c0-19-14.2-35-34.5-35c-20.3,0-34.5,15.9-34.5,35c0,19.7,15.8,35,34.5,35
		C1207.7,677.8,1223.5,662.6,1223.5,642.9z"/>
</g>
<g>
	<path fill="#4C4535" d="M105.4,428.3c35.6-15.3,78-27.8,129.4-38.2c94.8-19.1,207-27.9,315.6-36.4c102.4-8,208.3-16.3,298-33.3
		c96.7-18.2,164.2-44.7,206.1-80.9L890.3,0L688.4,220.8L587.6,73.6L419.7,257.1l-75.9-110.6L69.4,446.1
		C80.4,439.8,92.4,433.9,105.4,428.3z"/>
	<path fill="#FEAA00" d="M1068.7,260.4c-23.6,19.9-53.1,36.5-90.2,50.7c-35,13.5-76.1,24.6-125.5,33.9
		c-91.1,17.2-197.6,25.5-300.7,33.6C444.5,387,333,395.9,239.7,414.7C143.9,434,77.4,461.6,37.1,500.6h160.1h235.5h154.1h293.3
		h353.2L1068.7,260.4z"/>
</g>
</svg>
