<?xml version="1.0" encoding="utf-8"?>
<!-- Generator: Adobe Illustrator 16.0.0, SVG Export Plug-In . SVG Version: 6.00 Build 0)  -->
<!DOCTYPE svg PUBLIC "-//W3C//DTD SVG 1.1//EN" "http://www.w3.org/Graphics/SVG/1.1/DTD/svg11.dtd">
<svg version="1.1" id="Layer_1" xmlns="http://www.w3.org/2000/svg" xmlns:xlink="http://www.w3.org/1999/xlink" x="0px" y="0px"
	 width="2883px" height="505.6px" viewBox="0 0 2883 505.6" enable-background="new 0 0 2883 505.6" xml:space="preserve">
<g id="mountains" display="none">
</g>
<g id="car" display="none">
</g>
<g id="Layer_5">
	<g>
		<g enable-background="new    ">
			<path fill="#FFFFFF" d="M1382.293,216.244h50.34c40.716,0,72.919,6.663,103.642,35.164c29.24,27.39,44.416,64.776,44.416,104.751
				c0,38.496-14.805,75.141-42.936,102.161c-30.723,29.611-63.666,37.015-105.123,37.015h-50.34V216.244z M1432.263,478.679
				c36.645,0,66.997-7.403,93.647-33.684c23.689-23.689,37.016-55.522,37.016-88.836c0-35.534-14.066-68.848-40.348-92.906
				c-26.65-24.06-55.521-30.353-90.315-30.353h-32.203v245.778H1432.263z"/>
		</g>
		<g enable-background="new    ">
			<path fill="#FFFFFF" d="M1887.192,355.789c0,78.472-66.257,143.247-144.729,143.247s-144.728-64.775-144.728-143.247
				s65.887-143.247,144.728-143.247C1820.936,212.542,1887.192,277.317,1887.192,355.789z M1615.504,355.789
				c0,68.848,57.373,126.591,126.96,126.591c69.218,0,126.961-58.113,126.961-126.591c0-68.847-57.743-126.59-126.961-126.59
				C1672.877,229.199,1615.504,286.942,1615.504,355.789z"/>
			<path fill="#FFFFFF" d="M1925.315,478.679h71.068v16.656h-88.835V216.244h17.767V478.679z"/>
		</g>
		<g enable-background="new    ">
			<path fill="#FFFFFF" d="M2276.192,355.789c0,78.472-66.257,143.247-144.729,143.247s-144.728-64.775-144.728-143.247
				s65.887-143.247,144.728-143.247C2209.936,212.542,2276.192,277.317,2276.192,355.789z M2004.504,355.789
				c0,68.848,57.373,126.591,126.96,126.591c69.218,0,126.961-58.113,126.961-126.591c0-68.847-57.743-126.59-126.961-126.59
				C2061.877,229.199,2004.504,286.942,2004.504,355.789z"/>
		</g>
		<g enable-background="new    ">
			<path fill="#FFFFFF" d="M2536.826,264.362h-0.74l-97.349,240.227l-96.979-240.227h-0.74l-47.749,230.973h-17.027l59.965-288.345
				l102.53,253.921l102.901-253.921l59.964,288.345h-17.027L2536.826,264.362z"/>
			<path fill="#FFFFFF" d="M2644.908,495.335h-17.767V216.244h17.767V495.335z"/>
			<path fill="#FFFFFF" d="M2759.281,495.335h-17.768V232.9h-72.179v-16.657h162.125V232.9h-72.179V495.335z"/>
			<path fill="#FFFFFF" d="M2873.657,495.335h-17.767V216.244h17.767V495.335z"/>
		</g>
		<g enable-background="new    ">
			<path fill="#FFFFFF" d="M1484.27,84.594v4.238c0,29.245-20.627,51.709-50.437,51.709s-53.828-25.714-53.828-55.241
				c0-30.658,24.583-55.806,55.241-55.806c16.53,0,32.918,7.488,43.374,20.627l-9.325,8.9
				c-7.629-10.455-20.485-17.378-33.483-17.378c-23.876,0-42.525,19.355-42.525,43.232c0,22.322,18.366,43.515,41.395,43.515
				c16.53,0,34.332-14.27,34.896-31.647h-27.549V84.594H1484.27z"/>
			<path fill="#FFFFFF" d="M1618.631,138.28h-16.105l-31.365-45.068h-5.51v45.068h-13.281V31.754h16.107
				c9.465,0,19.637,0.141,28.115,4.945c8.9,5.228,13.986,15.258,13.986,25.431c0,15.258-10.172,27.974-25.572,29.811
				L1618.631,138.28z M1565.65,82.191h4.238c13.562,0,28.256-2.543,28.256-19.496c0-16.672-15.822-19.073-28.963-19.073h-3.531
				V82.191z"/>
			<path fill="#FFFFFF" d="M1699.162,111.578l-12.15,26.702h-14.268l50.859-111.047l50.861,111.047h-14.268l-12.15-26.702H1699.162z
				 M1723.604,56.337l-18.932,43.091h37.865L1723.604,56.337z"/>
			<path fill="#FFFFFF" d="M1837.053,26.668l79.967,83.78V31.754h13.279V142.66l-79.965-83.78v79.4h-13.281V26.668z"/>
			<path fill="#FFFFFF" d="M2113.26,138.28h-13.281V31.754h15.258c32.777,0,42.949,11.302,42.949,30.799
				c0,22.464-17.094,31.082-37.297,31.082h-7.629V138.28z M2113.26,81.768h4.238c13.562,0,28.256-2.543,28.256-19.496
				c0-16.672-15.824-18.649-28.963-18.649h-3.531V81.768z"/>
			<path fill="#FFFFFF" d="M2291.133,138.28h-16.105l-31.365-45.068h-5.51v45.068h-13.281V31.754h16.107
				c9.465,0,19.637,0.141,28.115,4.945c8.9,5.228,13.986,15.258,13.986,25.431c0,15.258-10.172,27.974-25.572,29.811
				L2291.133,138.28z M2238.152,82.191h4.238c13.562,0,28.256-2.543,28.256-19.496c0-16.672-15.822-19.073-28.963-19.073h-3.531
				V82.191z"/>
		</g>
		<g enable-background="new    ">
			<path fill="#FFFFFF" d="M2367.41,31.754h57.219v12.15h-43.939v29.811h42.668v12.15h-42.668v40.265h43.939v12.15h-57.219V31.754z"
				/>
		</g>
		<g enable-background="new    ">
			<path fill="#FFFFFF" d="M2521.293,67.922h-0.282l-12.433,70.358h-13.705l21.758-111.047l36.592,83.921l36.592-83.921
				l21.758,111.047h-13.705l-12.432-70.358h-0.283l-31.93,72.619L2521.293,67.922z"/>
			<path fill="#FFFFFF" d="M2691.258,138.28h-13.281V31.754h13.281V138.28z"/>
		</g>
		<g enable-background="new    ">
			<path fill="#FFFFFF" d="M2873.334,85.018c0,31.646-25.008,55.523-55.807,55.523s-55.806-23.877-55.806-55.523
				c0-30.517,25.289-55.524,55.806-55.524C2848.045,29.494,2873.334,54.501,2873.334,85.018z M2860.053,85.018
				c0-23.453-17.519-43.091-42.525-43.091s-42.525,19.638-42.525,43.091c0,24.3,19.496,43.091,42.525,43.091
				S2860.053,109.317,2860.053,85.018z"/>
		</g>
	</g>
	<g>
		<g>
			<path fill="#FFFFFF" d="M105.4,428.3c35.6-15.3,78-27.8,129.4-38.2C329.6,371,441.8,362.2,550.4,353.7
				c102.398-8,208.3-16.3,298-33.3c96.698-18.2,164.198-44.7,206.1-80.9L890.3,0L688.4,220.8L587.6,73.6L419.7,257.101L343.8,146.5
				L69.4,446.1C80.4,439.8,92.4,433.9,105.4,428.3z"/>
		</g>
		<g>
			<path fill="#FFFFFF" d="M1068.7,260.399c-23.602,19.899-53.102,36.5-90.2,50.699c-35,13.5-76.1,24.602-125.5,33.9
				c-91.1,17.2-197.6,25.5-300.7,33.6C444.5,387,333,395.9,239.7,414.7C143.9,434,77.4,461.6,37.1,500.6h160.1h235.5h154.1h293.3
				h353.2L1068.7,260.399z"/>
		</g>
	</g>
</g>
</svg>
