<?xml version="1.0" encoding="utf-8"?>
<!-- Generator: Adobe Illustrator 16.0.0, SVG Export Plug-In . SVG Version: 6.00 Build 0)  -->
<!DOCTYPE svg PUBLIC "-//W3C//DTD SVG 1.1//EN" "http://www.w3.org/Graphics/SVG/1.1/DTD/svg11.dtd">
<svg version="1.1" id="Layer_1" xmlns="http://www.w3.org/2000/svg" xmlns:xlink="http://www.w3.org/1999/xlink" x="0px" y="0px"
	 width="1223.6px" height="988.3px" viewBox="12.6 0 1223.6 988.3" enable-background="new 12.6 0 1223.6 988.3"
	 xml:space="preserve">
<g id="mountains" display="none">
</g>
<g id="car" display="none">
</g>
<g id="Layer_5">
	<g>
		
			<text transform="matrix(1 0 0 1 4.882812e-04 975.8447)" fill="#4C4535" font-family="'FuturaLT-Light'" font-size="300.3815" letter-spacing="-6">D</text>
		
			<text transform="matrix(1 0 0 1 188.3003 975.8447)" fill="#4C4535" font-family="'FuturaLT-Light'" font-size="300.3815" letter-spacing="-18">OL</text>
		
			<text transform="matrix(1 0 0 1 504.0005 975.8447)" fill="#4C4535" font-family="'FuturaLT-Light'" font-size="300.3815" letter-spacing="-12">O</text>
		
			<text transform="matrix(1 0 0 1 747.0005 975.8447)" fill="#4C4535" font-family="'FuturaLT-Light'" font-size="300.3815" letter-spacing="-6">MITI</text>
		
			<text transform="matrix(1 0 0 1 20.0649 686.0898)" fill="#4C4535" font-family="'FuturaLT'" font-size="114.653" letter-spacing="44">GRAN PR</text>
		
			<text transform="matrix(1 0 0 1 815.5649 686.0898)" fill="#4C4535" font-family="'FuturaLT'" font-size="114.653" letter-spacing="49">E</text>
		
			<text transform="matrix(1 0 0 1 925.6655 686.0898)" fill="#4C4535" font-family="'FuturaLT'" font-size="114.653" letter-spacing="44">MI</text>
		
			<text transform="matrix(1 0 0 1 1141.5649 686.0898)" fill="#4C4535" font-family="'FuturaLT'" font-size="114.653" letter-spacing="19">O</text>
		<g>
			<path fill="#4C4535" d="M105.4,428.3c35.6-15.3,78-27.8,129.4-38.2C329.6,371,441.8,362.2,550.4,353.7
				c102.399-8,208.299-16.3,298-33.3c96.699-18.2,164.199-44.7,206.1-80.9L890.299,0L688.401,220.8L587.6,73.6L419.7,257.1
				l-75.9-110.6L69.4,446.1C80.4,439.8,92.4,433.9,105.4,428.3z"/>
			<path fill="#4C4535" d="M1068.7,260.4c-23.6,19.9-53.1,36.5-90.199,50.7c-35,13.5-76.1,24.601-125.5,33.9
				c-91.1,17.2-197.6,25.5-300.701,33.6C444.5,387,333,395.9,239.7,414.7C143.9,434,77.4,461.6,37.1,500.6h160.1h235.5h154.1h293.3
				h353.199L1068.7,260.4z"/>
		</g>
	</g>
</g>
</svg>
