<?xml version="1.0" encoding="utf-8"?>
<!-- Generator: Adobe Illustrator 16.0.0, SVG Export Plug-In . SVG Version: 6.00 Build 0)  -->
<!DOCTYPE svg PUBLIC "-//W3C//DTD SVG 1.1//EN" "http://www.w3.org/Graphics/SVG/1.1/DTD/svg11.dtd">
<svg version="1.1" id="Layer_1" xmlns="http://www.w3.org/2000/svg" xmlns:xlink="http://www.w3.org/1999/xlink" x="0px" y="0px"
	 width="1223.6px" height="988.3px" viewBox="0 0 1223.6 988.3" enable-background="new 0 0 1223.6 988.3" xml:space="preserve">
<g id="mountains" display="none">
</g>
<g id="car" display="none">
</g>
<g id="Layer_5">
	<g>
		<g enable-background="new    ">
			<path fill="#4C4535" d="M6.615,749.355h40.853c33.042,0,59.176,5.406,84.107,28.535c23.73,22.229,36.046,52.568,36.046,85.01
				c0,31.239-12.015,60.978-34.845,82.906c-24.932,24.03-51.666,30.038-85.309,30.038H6.615V749.355z M47.167,962.327
				c29.738,0,54.37-6.008,75.998-27.335c19.224-19.225,30.039-45.058,30.039-72.092c0-28.837-11.415-55.871-32.742-75.396
				c-21.627-19.525-45.058-24.632-73.294-24.632H21.034v199.455H47.167z"/>
		</g>
		<g enable-background="new    ">
			<path fill="#4C4535" d="M416.299,862.599c0,63.682-53.77,116.249-117.451,116.249c-63.682,0-117.45-52.567-117.45-116.249
				s53.468-116.248,117.45-116.248C362.53,746.351,416.299,798.917,416.299,862.599z M195.817,862.599
				c0,55.872,46.56,102.731,103.032,102.731c56.172,0,103.032-47.16,103.032-102.731c0-55.871-46.859-102.731-103.032-102.731
				C242.376,759.868,195.817,806.728,195.817,862.599z"/>
			<path fill="#4C4535" d="M448.134,962.327h57.674v13.518h-72.093V749.355h14.419V962.327z"/>
		</g>
		<g enable-background="new    ">
			<path fill="#4C4535" d="M732,862.599c0,63.682-53.77,116.249-117.451,116.249s-117.45-52.567-117.45-116.249
				s53.468-116.248,117.45-116.248C678.23,746.351,732,798.917,732,862.599z M511.517,862.599
				c0,55.872,46.56,102.731,103.032,102.731c56.172,0,103.031-47.16,103.031-102.731c0-55.871-46.859-102.731-103.031-102.731
				C558.077,759.868,511.517,806.728,511.517,862.599z"/>
		</g>
		<g enable-background="new    ">
			<path fill="#4C4535" d="M943.459,788.404h-0.602l-79,194.95l-78.701-194.95h-0.602l-38.749,187.44h-13.817l48.662-233.999
				l83.207,206.063l83.506-206.063l48.662,233.999h-13.816L943.459,788.404z"/>
			<path fill="#4C4535" d="M1031.766,975.844h-14.418V749.355h14.418V975.844z"/>
			<path fill="#4C4535" d="M1125.182,975.844h-14.418V762.872h-58.574v-13.517h131.568v13.517h-58.576V975.844z"/>
			<path fill="#4C4535" d="M1218.6,975.844h-14.418V749.355h14.418V975.844z"/>
		</g>
		<g enable-background="new    ">
			<path fill="#4C4535" d="M89.372,642.521v3.439c0,23.733-16.74,41.963-40.932,41.963c-24.192,0-43.684-20.866-43.684-44.829
				c0-24.88,19.95-45.289,44.83-45.289c13.415,0,26.714,6.077,35.199,16.739l-7.567,7.224c-6.191-8.484-16.625-14.103-27.173-14.103
				c-19.376,0-34.511,15.708-34.511,35.084c0,18.116,14.905,35.314,33.594,35.314c13.415,0,27.861-11.58,28.319-25.683H55.09v-9.86
				H89.372z"/>
			<path fill="#4C4535" d="M197.718,686.089h-13.07l-25.453-36.575h-4.472v36.575h-10.777V599.64h13.07
				c7.682,0,15.938,0.114,22.816,4.013c7.224,4.242,11.351,12.383,11.351,20.638c0,12.383-8.255,22.701-20.752,24.192
				L197.718,686.089z M154.723,640.572h3.439c11.007,0,22.931-2.064,22.931-15.822c0-13.529-12.841-15.479-23.504-15.479h-2.866
				V640.572z"/>
			<path fill="#4C4535" d="M262.382,664.419l-9.86,21.67h-11.58l41.275-90.118l41.275,90.118h-11.58l-9.86-21.67H262.382z
				 M282.217,619.589l-15.363,34.97h30.727L282.217,619.589z"/>
			<path fill="#4C4535" d="M373.594,595.512l64.895,67.99V599.64h10.777v90.004l-64.895-67.99v64.436h-10.777V595.512z"/>
			<path fill="#4C4535" d="M596.361,686.089h-10.777V599.64h12.383c26.6,0,34.855,9.172,34.855,24.994
				c0,18.23-13.874,25.225-30.27,25.225h-6.191V686.089z M596.361,640.228h3.44c11.007,0,22.931-2.064,22.931-15.823
				c0-13.528-12.842-15.134-23.504-15.134h-2.867V640.228z"/>
			<path fill="#4C4535" d="M740.021,686.089H726.95l-25.453-36.575h-4.472v36.575h-10.777V599.64h13.071
				c7.682,0,15.937,0.114,22.815,4.013c7.224,4.242,11.352,12.383,11.352,20.638c0,12.383-8.256,22.701-20.753,24.192
				L740.021,686.089z M697.025,640.572h3.44c11.007,0,22.931-2.064,22.931-15.822c0-13.529-12.842-15.479-23.504-15.479h-2.867
				V640.572z"/>
		</g>
		<g enable-background="new    ">
			<path fill="#4C4535" d="M806.104,599.64h46.436v9.86h-35.657v24.191h34.626v9.86h-34.626v32.677h35.657v9.86h-46.436V599.64z"/>
		</g>
		<g enable-background="new    ">
			<path fill="#4C4535" d="M930.881,628.992h-0.229l-10.09,57.098H909.44l17.657-90.118l29.695,68.104l29.695-68.104l17.656,90.118
				h-11.121l-10.09-57.098h-0.229l-25.912,58.932L930.881,628.992z"/>
			<path fill="#4C4535" d="M1068.119,686.089h-10.777V599.64h10.777V686.089z"/>
		</g>
		<g enable-background="new    ">
			<path fill="#4C4535" d="M1216.604,642.865c0,25.683-20.294,45.059-45.288,45.059c-24.995,0-45.289-19.376-45.289-45.059
				c0-24.766,20.523-45.06,45.289-45.06S1216.604,618.099,1216.604,642.865z M1205.827,642.865c0-19.033-14.218-34.97-34.511-34.97
				c-20.294,0-34.512,15.937-34.512,34.97c0,19.721,15.822,34.97,34.512,34.97C1190.005,677.834,1205.827,662.585,1205.827,642.865z
				"/>
		</g>
		<g>
			<g>
				<path fill="#4C4535" d="M87.684,428.3c35.6-15.3,78-27.8,129.4-38.2c94.8-19.1,207-27.899,315.601-36.399
					c102.398-8,208.299-16.3,298-33.3c96.698-18.2,164.198-44.7,206.1-80.9L872.583,0L670.686,220.8L569.884,73.6L401.984,257.1
					l-75.9-110.6l-274.4,299.6C62.684,439.8,74.684,433.9,87.684,428.3z"/>
			</g>
			<g>
				<path fill="#4C4535" d="M1050.984,260.4c-23.601,19.9-53.101,36.5-90.199,50.7c-35,13.5-76.1,24.602-125.5,33.9
					c-91.1,17.2-197.6,25.5-300.701,33.6c-107.8,8.4-219.3,17.301-312.6,36.101c-95.8,19.3-162.3,46.899-202.6,85.899h160.1h235.5
					h154.1h293.3h353.199L1050.984,260.4z"/>
			</g>
		</g>
	</g>
</g>
</svg>
